<svg width="295" height="236" viewBox="0 0 295 236" fill="none" xmlns="http://www.w3.org/2000/svg">
<path d="M248.311 26.5004H114.811L227.311 3.00042C236.088 2.9717 240.137 4.3979 244.311 12.0004L248.311 26.5004Z" fill="#002F6C" stroke="white" stroke-width="2"/>
<path d="M45.3104 43.0005C45.4949 39.3939 46.2162 37.2911 47.8104 33.5005L29.3104 38.0005C20.3315 42.6005 18.7345 47.0125 20.8104 57.5005L45.3104 170.5V43.0005Z" fill="#002F6C" stroke="white" stroke-width="2"/>
<path d="M274.675 25.7175C264.594 24.1031 60.3253 25.7175 60.3253 25.7175C51.6557 28.0817 48.3704 31.2207 46 40.7859V192.546C48.1199 199.994 50.1238 203.544 58.7336 206H274.675C284.108 204.589 286.934 201.332 289 192.546V40.7859C289 34.8662 284.755 27.332 274.675 25.7175Z" fill="white"/>
<path d="M274.675 25.7175C264.594 24.1031 60.3253 25.7175 60.3253 25.7175C51.6557 28.0817 48.3704 31.2207 46 40.7859V192.546C48.1199 199.994 50.1238 203.544 58.7336 206H274.675C284.108 204.589 286.934 201.332 289 192.546V40.7859C289 34.8662 284.755 27.332 274.675 25.7175Z" stroke="white"/>
<path d="M268.811 33.0005C259.311 31.5005 66.8105 33.0005 66.8105 33.0005C58.6404 35.1971 55.5444 38.1135 53.3105 47.0005V188.001C55.3083 194.921 57.1967 198.218 65.3105 200.501H268.811C277.701 199.19 280.364 196.163 282.311 188.001V47.0005C282.311 41.5005 278.311 34.5005 268.811 33.0005Z" fill="#002F6C"/>
<path d="M268.811 33.0005C259.311 31.5005 66.8105 33.0005 66.8105 33.0005C58.6404 35.1971 55.5444 38.1135 53.3105 47.0005V188.001C55.3083 194.921 57.1967 198.218 65.3105 200.501H268.811C277.701 199.19 280.364 196.163 282.311 188.001V47.0005C282.311 41.5005 278.311 34.5005 268.811 33.0005Z" stroke="#002F6C"/>
<path d="M259.311 56.0005L257.311 64.5005C252.063 62.2432 248.573 62.6093 246.106 62.868C245.437 62.9382 244.844 63.0005 244.311 63.0005C241.811 63.0005 239.095 66.9676 241.811 71.0005L250.311 75.0005C257.512 78.2993 259.905 80.4716 260.811 85.0005C262.569 92.8201 260.811 95.8982 255.811 100.5C245.071 105.756 239.051 104.717 228.311 100.5L229.811 92.0005C237.612 94.0111 241.95 95.0755 247.811 93.5005C251.609 88.8919 250.775 87.2199 246.811 85.0005L236.811 80.5005C226.25 72.8298 227.032 67.7354 232.311 59.5005C240.744 52.8766 246.598 51.9574 259.311 56.0005ZM86.8105 102.5H76.8105V54.0005H89.3105L107.811 88.5005L106.811 54.0005H117.311V102.5H105.811L86.8105 67.0005V102.5ZM157.811 102.5H126.311V54.0005H157.811V63.0005H137.811V73.0005H155.811V82.5005H137.811V94.0005H157.811V102.5ZM162.311 54.0005L174.311 102.5H185.811L192.811 67.0005L200.311 102.5H212.311L224.311 54.0005H213.811L206.311 90.5005L200.311 54.0005H188.311L180.811 90.5005L174.311 54.0005H162.311Z" fill="white"/>
<path d="M259.311 56.0005L257.311 64.5005C252.063 62.2432 248.573 62.6093 246.106 62.868C245.437 62.9382 244.844 63.0005 244.311 63.0005C241.811 63.0005 239.095 66.9676 241.811 71.0005L250.311 75.0005C257.512 78.2993 259.905 80.4716 260.811 85.0005C262.569 92.8201 260.811 95.8982 255.811 100.5C245.071 105.756 239.051 104.717 228.311 100.5L229.811 92.0005C237.612 94.0111 241.95 95.0755 247.811 93.5005C251.609 88.8919 250.775 87.2199 246.811 85.0005L236.811 80.5005C226.25 72.8298 227.032 67.7354 232.311 59.5005C240.744 52.8766 246.598 51.9574 259.311 56.0005ZM86.8105 102.5H76.8105V54.0005H89.3105L107.811 88.5005L106.811 54.0005H117.311V102.5H105.811L86.8105 67.0005V102.5ZM157.811 102.5H126.311V54.0005H157.811V63.0005H137.811V73.0005H155.811V82.5005H137.811V94.0005H157.811V102.5ZM162.311 54.0005L174.311 102.5H185.811L192.811 67.0005L200.311 102.5H212.311L224.311 54.0005H213.811L206.311 90.5005L200.311 54.0005H188.311L180.811 90.5005L174.311 54.0005H162.311Z" stroke="white"/>
<path d="M78.3104 126.5C74.3104 126.5 72.3105 118 78.3104 116.5C78.3104 116.5 148.948 116.5 155.31 116.5C161.673 116.501 161.672 126.501 155.31 126.5C150.046 126.5 103.494 126.5 85.3333 126.5C81.5508 126.5 79 126.5 78.3104 126.5Z" fill="white"/>
<path d="M78.3104 126.5C74.3104 126.5 72.3105 118 78.3104 116.5C78.3104 116.5 148.948 116.5 155.31 116.5C161.673 116.501 161.672 126.501 155.31 126.5C150.046 126.5 103.494 126.5 85.3333 126.5C81.5508 126.5 79 126.5 78.3104 126.5Z" stroke="white"/>
<path d="M78.3104 147.001C74.3104 147.001 72.3105 138.501 78.3104 137.001C78.3104 137.001 148.948 137 155.31 137.001C161.673 137.001 161.672 147.001 155.31 147.001C150.046 147.001 103.494 147.001 85.3333 147.001C81.5508 147.001 79 147.001 78.3104 147.001Z" fill="white"/>
<path d="M78.3104 147.001C74.3104 147.001 72.3105 138.501 78.3104 137.001C78.3104 137.001 148.948 137 155.31 137.001C161.673 137.001 161.672 147.001 155.31 147.001C150.046 147.001 103.494 147.001 85.3333 147.001C81.5508 147.001 79 147.001 78.3104 147.001Z" stroke="white"/>
<path d="M78.3104 168.001C74.3104 168.001 72.3105 159.501 78.3104 158.001C78.3104 158.001 148.948 158 155.31 158.001C161.673 158.001 161.672 168.001 155.31 168.001C150.046 168.001 103.494 168.001 85.3333 168.001C81.5508 168.001 79 168.001 78.3104 168.001Z" fill="white"/>
<path d="M78.3104 168.001C74.3104 168.001 72.3105 159.501 78.3104 158.001C78.3104 158.001 148.948 158 155.31 158.001C161.673 158.001 161.672 168.001 155.31 168.001C150.046 168.001 103.494 168.001 85.3333 168.001C81.5508 168.001 79 168.001 78.3104 168.001Z" stroke="white"/>
<path d="M78.3104 189.001C74.3104 189.001 72.3105 180.501 78.3104 179.001C78.3104 179.001 148.948 179 155.31 179.001C161.673 179.001 161.672 189.001 155.31 189.001C150.046 189.001 103.494 189.001 85.3333 189.001C81.5508 189.001 79 189.001 78.3104 189.001Z" fill="white"/>
<path d="M78.3104 189.001C74.3104 189.001 72.3105 180.501 78.3104 179.001C78.3104 179.001 148.948 179 155.31 179.001C161.673 179.001 161.672 189.001 155.31 189.001C150.046 189.001 103.494 189.001 85.3333 189.001C81.5508 189.001 79 189.001 78.3104 189.001Z" stroke="white"/>
<path d="M177.597 126.5C173.597 126.5 171.597 118 177.597 116.5C177.597 116.5 248.235 116.5 254.597 116.5C260.96 116.501 260.959 126.501 254.597 126.5C249.333 126.5 202.78 126.5 184.62 126.5C180.838 126.5 178.287 126.5 177.597 126.5Z" fill="white"/>
<path d="M177.597 126.5C173.597 126.5 171.597 118 177.597 116.5C177.597 116.5 248.235 116.5 254.597 116.5C260.96 116.501 260.959 126.501 254.597 126.5C249.333 126.5 202.78 126.5 184.62 126.5C180.838 126.5 178.287 126.5 177.597 126.5Z" stroke="white"/>
<path d="M177.597 147.001C173.597 147.001 171.597 138.501 177.597 137.001C177.597 137.001 248.235 137 254.597 137.001C260.96 137.001 260.959 147.001 254.597 147.001C249.333 147.001 202.78 147.001 184.62 147.001C180.838 147.001 178.287 147.001 177.597 147.001Z" fill="white"/>
<path d="M177.597 147.001C173.597 147.001 171.597 138.501 177.597 137.001C177.597 137.001 248.235 137 254.597 137.001C260.96 137.001 260.959 147.001 254.597 147.001C249.333 147.001 202.78 147.001 184.62 147.001C180.838 147.001 178.287 147.001 177.597 147.001Z" stroke="white"/>
<path d="M177.597 168.001C173.597 168.001 171.597 159.501 177.597 158.001C177.597 158.001 248.235 158 254.597 158.001C260.96 158.001 260.959 168.001 254.597 168.001C249.333 168.001 202.78 168.001 184.62 168.001C180.838 168.001 178.287 168.001 177.597 168.001Z" fill="white"/>
<path d="M177.597 168.001C173.597 168.001 171.597 159.501 177.597 158.001C177.597 158.001 248.235 158 254.597 158.001C260.96 158.001 260.959 168.001 254.597 168.001C249.333 168.001 202.78 168.001 184.62 168.001C180.838 168.001 178.287 168.001 177.597 168.001Z" stroke="white"/>
<path d="M177.597 189.001C173.597 189.001 171.597 180.501 177.597 179.001C177.597 179.001 248.235 179 254.597 179.001C260.96 179.001 260.959 189.001 254.597 189.001C249.333 189.001 202.78 189.001 184.62 189.001C180.838 189.001 178.287 189.001 177.597 189.001Z" fill="white"/>
<path d="M177.597 189.001C173.597 189.001 171.597 180.501 177.597 179.001C177.597 179.001 248.235 179 254.597 179.001C260.96 179.001 260.959 189.001 254.597 189.001C249.333 189.001 202.78 189.001 184.62 189.001C180.838 189.001 178.287 189.001 177.597 189.001Z" stroke="white"/>
<path d="M30.1711 203.727L35.1959 214.6C37.9874 217.667 44.2404 224.469 46.9203 227.145C49.6002 229.822 52.5034 231.048 53.62 231.327C55.5741 231.885 61.3247 233 68.6944 233C77.9065 233 84.6062 228.818 85.4437 228.818C86.1137 228.818 92.4226 226.03 95.4933 224.636L110.568 217.109L125.642 208.745L134.854 202.055L144.904 195.364C146.858 193.97 150.933 190.513 151.603 187.836C152.273 185.16 151.324 182.818 150.766 181.982L144.904 170.273C143.508 166.37 140.716 158.396 140.716 157.727C140.716 157.058 139.6 149.642 139.041 146.018V127.618L140.716 115.909C140.716 114.236 141.051 109.887 142.391 105.873C143.731 101.858 145.741 100.297 146.579 100.018L157.466 89.1455L165.003 80.7818L175.89 68.2364C178.681 65.4485 184.767 59.5382 186.777 58.2C188.787 56.8618 194.872 50.9515 197.664 48.1636C202.13 43.4242 211.063 33.7782 211.063 33.1091C211.063 32.44 217.763 25.0242 221.113 21.4L236.187 17.2182H246.237L256.286 19.7273L262.986 24.7455L272.198 30.6L276.386 38.1273L280.573 44.8182C287.273 49.8364 293.972 42.3091 291.46 37.2909L287.273 29.7636L279.735 21.4L269.686 13.0364C266.336 10.8061 259.469 6.34545 258.799 6.34545C258.129 6.34545 251.82 4.11515 248.749 3H238.7L223.625 6.34545L211.063 13.0364L204.364 19.7273L196.826 28.0909L184.265 40.6364L171.703 54.8545L161.653 65.7273L144.904 80.7818L136.529 86.6364L125.642 90.8182H114.755H102.193C96.8891 90.8182 85.9462 90.6509 84.6063 89.9818C83.2663 89.3127 72.3235 86.9151 67.0195 85.8C62.8322 85.2424 54.2901 84.1273 53.6201 84.1273C52.9501 84.1273 46.6412 81.897 43.5705 80.7818L31.846 74.9273C29.6128 74.0909 24.6438 72.4182 22.6339 72.4182C20.624 72.4182 18.4466 74.0909 17.6091 74.9273L11.7469 80.7818C10.9094 82.1758 8.89951 85.1309 7.55957 85.8C5.88464 86.6364 4.20969 89.1454 3.37222 90.8182C2.53476 92.4909 3.37222 93.3273 3.37222 95C3.37222 96.6727 4.20972 101.691 4.20972 102.527C4.20972 103.196 5.32629 107.267 5.88461 109.218L7.55957 120.927L9.23447 134.309C9.79279 138.77 11.0769 148.193 11.7469 150.2C12.4168 152.207 14.2592 158.285 15.0967 161.073L19.2841 172.782L25.1463 190.345L30.1711 203.727Z" fill="#002F6C" stroke="white" stroke-width="5"/>
</svg>
